<svg width="224" height="56" viewBox="0 0 224 56" xmlns="http://www.w3.org/2000/svg"><path fill-rule="evenodd" fill="#2E6BE5" d="M56 0h168v56H56z"/><path fill-rule="evenodd" fill="#F8F8F8" d="M185.273 35.378c-2.713 0-3.86-2.293-3.86-4.93 0-2.599 1.147-4.816 3.86-4.816 2.828 0 3.86 2.216 3.86 4.816.001 2.637-1.031 4.93-3.86 4.93zm-3.697-11.894V21h-6.364v26h6.576v-8.976c1.273 1.928 3.543 2.59 5.851 2.59 4.93 0 8.021-4.166 8.021-10.166 0-5.886-3.025-10.128-8.031-10.128-2.354 0-4.781.752-6.053 3.164zM159.974 23.687c-1.078-2.38-2.867-3.367-5.299-3.367-2.135 0-4.494.685-5.767 3.422V21h-6.364v19h6.576V29.989c0-2.14.741-3.975 2.843-3.975 1.911 0 2.46 1.338 2.46 3.554V40H161V29.684c0-2.064.692-3.669 2.756-3.669 1.911 0 2.335 1.338 2.335 3.554V40h6.576V28.231c0-4.815-2.2-7.873-6.977-7.873-2.472 0-4.384.96-5.716 3.329zM130.245 35.877c-1.681 0-2.698-.705-2.698-2.119 0-1.376 1.277-2.234 2.958-2.234h2.919v1.104c0 1.835-1.115 3.249-3.179 3.249m-8.109-9.242h6c.115-1.485 1.115-2.264 2.682-2.264 1.758 0 2.606.832 2.606 3.049v.276h-4.142c-5.733 0-7.988 3.512-7.988 6.455 0 3.402 2.397 6.438 6.563 6.438 2.429 0 4.93-.66 5.99-2.615V40h5.939V28.032c0-5.236-3.743-7.75-8.903-7.712-5.539.039-8.518 2.709-8.747 6.315zM112 14h7v26h-7zM109.559 20.341V14H87.574c-4.685 0-8.95 2.932-8.95 8.188 0 4.266 2.742 7.16 6.36 8.15l1.714-5.884c-.876-.381-1.6-1.134-1.6-2.2 0-1.447 1.219-2.124 2.361-2.124H89.9V40h6.764v-8.667h9.935v-6.13h-9.935v-4.862h12.895"/><path fill="#303540" d="M0 0h56v56H0z"/><path fill="#FFF" d="M27 16h12.874c-3.167-3.167-7.542-5-12.374-5C17.835 11 10 18.835 10 28.5c0 4.832 1.833 9.333 5 12.5V28.626C15 21.722 20.096 16 27 16z"/><circle fill="#FFF" cx="27.5" cy="28.5" r="7.5"/><path fill="#FFF" d="M40 16.126V28c0 6.904-5.096 13-12 13H15c3.167 3.167 7.668 5 12.5 5C37.165 46 45 38.165 45 28.5c0-4.832-1.833-9.208-5-12.374z"/></svg>